<mxfile host="65bd71144e">
    <diagram id="Qqg0dAdzNbfIOzHemL8S" name="第 1 页">
        <mxGraphModel dx="2617" dy="1303" grid="1" gridSize="10" guides="1" tooltips="1" connect="1" arrows="1" fold="1" page="1" pageScale="1" pageWidth="827" pageHeight="1169" background="#ffffff" math="0" shadow="0">
            <root>
                <mxCell id="0"/>
                <mxCell id="1" parent="0"/>
                <mxCell id="17" style="edgeStyle=none;html=1;exitX=1;exitY=0.75;exitDx=0;exitDy=0;fontSize=17;fontColor=#000000;strokeColor=#000000;" edge="1" parent="1" source="2" target="11">
                    <mxGeometry relative="1" as="geometry">
                        <Array as="points">
                            <mxPoint x="-150" y="465"/>
                            <mxPoint x="-150" y="691"/>
                        </Array>
                    </mxGeometry>
                </mxCell>
                <mxCell id="21" style="edgeStyle=none;html=1;exitX=1;exitY=0.5;exitDx=0;exitDy=0;fontSize=17;fontColor=#000000;strokeColor=#000000;entryX=0;entryY=0.25;entryDx=0;entryDy=0;" edge="1" parent="1" source="2" target="12">
                    <mxGeometry relative="1" as="geometry">
                        <mxPoint x="210" y="420.58823529411757" as="targetPoint"/>
                    </mxGeometry>
                </mxCell>
                <mxCell id="2" value="&lt;font color=&quot;#000000&quot; style=&quot;font-size: 17px;&quot;&gt;USER_DATA_GEN&lt;/font&gt;" style="rounded=0;whiteSpace=wrap;html=1;fillColor=none;strokeColor=#000000;fontSize=17;" vertex="1" parent="1">
                    <mxGeometry x="-390" y="330" width="160" height="180" as="geometry"/>
                </mxCell>
                <mxCell id="20" style="edgeStyle=none;html=1;fontSize=17;fontColor=#000000;strokeColor=#000000;entryX=0;entryY=0.5;entryDx=0;entryDy=0;exitX=1;exitY=0.75;exitDx=0;exitDy=0;" edge="1" parent="1" source="2" target="3">
                    <mxGeometry relative="1" as="geometry">
                        <mxPoint x="-150" y="470" as="sourcePoint"/>
                        <Array as="points">
                            <mxPoint x="-150" y="465"/>
                            <mxPoint x="-150" y="245"/>
                        </Array>
                    </mxGeometry>
                </mxCell>
                <mxCell id="3" value="&lt;font color=&quot;#000000&quot; style=&quot;font-size: 17px;&quot;&gt;ADD_CRC&lt;/font&gt;" style="rounded=0;whiteSpace=wrap;html=1;fillColor=none;strokeColor=#000000;fontSize=17;" vertex="1" parent="1">
                    <mxGeometry x="-110" y="180" width="100" height="130" as="geometry"/>
                </mxCell>
                <mxCell id="4" value="&lt;font color=&quot;#000000&quot; style=&quot;font-size: 17px;&quot;&gt;screamble&lt;/font&gt;" style="rounded=0;whiteSpace=wrap;html=1;fillColor=none;strokeColor=#000000;fontSize=17;" vertex="1" parent="1">
                    <mxGeometry x="80" y="180" width="100" height="130" as="geometry"/>
                </mxCell>
                <mxCell id="5" value="&lt;font color=&quot;#000000&quot; style=&quot;font-size: 17px;&quot;&gt;convolute&lt;/font&gt;" style="rounded=0;whiteSpace=wrap;html=1;fillColor=none;strokeColor=#000000;fontSize=17;" vertex="1" parent="1">
                    <mxGeometry x="230" y="180" width="100" height="130" as="geometry"/>
                </mxCell>
                <mxCell id="6" value="&lt;font color=&quot;#000000&quot; style=&quot;font-size: 17px;&quot;&gt;puncture&lt;/font&gt;" style="rounded=0;whiteSpace=wrap;html=1;fillColor=none;strokeColor=#000000;fontSize=17;" vertex="1" parent="1">
                    <mxGeometry x="400" y="180" width="100" height="130" as="geometry"/>
                </mxCell>
                <mxCell id="7" value="&lt;span class=&quot;VIiyi&quot; lang=&quot;en&quot; style=&quot;font-size: 17px;&quot;&gt;&lt;font color=&quot;#000000&quot; style=&quot;font-size: 17px;&quot;&gt;interleave&lt;/font&gt;&lt;/span&gt;" style="rounded=0;whiteSpace=wrap;html=1;fillColor=none;strokeColor=#000000;fontSize=17;" vertex="1" parent="1">
                    <mxGeometry x="570" y="180" width="100" height="130" as="geometry"/>
                </mxCell>
                <mxCell id="8" value="&lt;font color=&quot;#000000&quot; style=&quot;font-size: 17px;&quot;&gt;Modulation&lt;/font&gt;" style="rounded=0;whiteSpace=wrap;html=1;fillColor=none;strokeColor=#000000;fontSize=17;" vertex="1" parent="1">
                    <mxGeometry x="750" y="180" width="100" height="130" as="geometry"/>
                </mxCell>
                <mxCell id="9" value="&lt;font color=&quot;#000000&quot; style=&quot;font-size: 17px;&quot;&gt;IFFT&lt;/font&gt;" style="rounded=0;whiteSpace=wrap;html=1;fillColor=none;strokeColor=#000000;fontSize=17;" vertex="1" parent="1">
                    <mxGeometry x="910" y="180" width="100" height="130" as="geometry"/>
                </mxCell>
                <mxCell id="10" value="&lt;font color=&quot;#000000&quot; style=&quot;font-size: 17px;&quot;&gt;arrange&lt;/font&gt;" style="rounded=0;whiteSpace=wrap;html=1;fillColor=none;strokeColor=#000000;fontSize=17;" vertex="1" parent="1">
                    <mxGeometry x="1100" y="180" width="100" height="590" as="geometry"/>
                </mxCell>
                <mxCell id="18" style="edgeStyle=none;html=1;exitX=1;exitY=0.25;exitDx=0;exitDy=0;entryX=0;entryY=0.75;entryDx=0;entryDy=0;fontSize=17;fontColor=#000000;strokeColor=#000000;" edge="1" parent="1" source="11" target="12">
                    <mxGeometry relative="1" as="geometry">
                        <Array as="points">
                            <mxPoint x="200" y="656"/>
                            <mxPoint x="200" y="520"/>
                        </Array>
                    </mxGeometry>
                </mxCell>
                <mxCell id="11" value="&lt;font color=&quot;#000000&quot; style=&quot;font-size: 17px;&quot;&gt;Preamble&lt;/font&gt;" style="rounded=0;whiteSpace=wrap;html=1;fillColor=none;strokeColor=#000000;fontSize=17;" vertex="1" parent="1">
                    <mxGeometry x="-40" y="626" width="100" height="130" as="geometry"/>
                </mxCell>
                <mxCell id="12" value="&lt;font color=&quot;#000000&quot; style=&quot;font-size: 17px;&quot;&gt;signal_pkt&lt;/font&gt;" style="rounded=0;whiteSpace=wrap;html=1;fillColor=none;strokeColor=#000000;fontSize=17;" vertex="1" parent="1">
                    <mxGeometry x="230" y="370" width="100" height="200" as="geometry"/>
                </mxCell>
                <mxCell id="13" value="&lt;font color=&quot;#000000&quot; style=&quot;font-size: 17px;&quot;&gt;convolute&lt;/font&gt;" style="rounded=0;whiteSpace=wrap;html=1;fillColor=none;strokeColor=#000000;fontSize=17;" vertex="1" parent="1">
                    <mxGeometry x="400" y="430" width="100" height="130" as="geometry"/>
                </mxCell>
                <mxCell id="14" value="&lt;font color=&quot;#000000&quot; style=&quot;font-size: 17px;&quot;&gt;interleave&lt;/font&gt;" style="rounded=0;whiteSpace=wrap;html=1;fillColor=none;strokeColor=#000000;fontSize=17;" vertex="1" parent="1">
                    <mxGeometry x="570" y="430" width="100" height="130" as="geometry"/>
                </mxCell>
                <mxCell id="15" value="&lt;font color=&quot;#000000&quot; style=&quot;font-size: 17px;&quot;&gt;Modulation&lt;/font&gt;" style="rounded=0;whiteSpace=wrap;html=1;fillColor=none;strokeColor=#000000;fontSize=17;" vertex="1" parent="1">
                    <mxGeometry x="750" y="430" width="100" height="130" as="geometry"/>
                </mxCell>
                <mxCell id="16" value="&lt;font color=&quot;#000000&quot; style=&quot;font-size: 17px;&quot;&gt;IFFT&lt;/font&gt;" style="rounded=0;whiteSpace=wrap;html=1;fillColor=none;strokeColor=#000000;fontSize=17;" vertex="1" parent="1">
                    <mxGeometry x="910" y="430" width="100" height="130" as="geometry"/>
                </mxCell>
                <mxCell id="19" value="" style="shape=flexArrow;endArrow=classic;html=1;fontSize=17;fontColor=#000000;strokeColor=#2D7600;entryX=-0.054;entryY=0.867;entryDx=0;entryDy=0;entryPerimeter=0;fillColor=#60a917;" edge="1" parent="1" source="11" target="10">
                    <mxGeometry width="50" height="50" relative="1" as="geometry">
                        <mxPoint x="170" y="688.76" as="sourcePoint"/>
                        <mxPoint x="290" y="688.76" as="targetPoint"/>
                    </mxGeometry>
                </mxCell>
                <mxCell id="24" value="" style="shape=flexArrow;endArrow=classic;html=1;fontSize=17;fontColor=#000000;strokeColor=#006EAF;fillColor=#1ba1e2;" edge="1" parent="1">
                    <mxGeometry width="50" height="50" relative="1" as="geometry">
                        <mxPoint x="-10" y="249" as="sourcePoint"/>
                        <mxPoint x="80" y="249" as="targetPoint"/>
                    </mxGeometry>
                </mxCell>
                <mxCell id="25" value="" style="shape=flexArrow;endArrow=classic;html=1;fontSize=17;fontColor=#000000;strokeColor=#006EAF;fillColor=#1ba1e2;" edge="1" parent="1">
                    <mxGeometry width="50" height="50" relative="1" as="geometry">
                        <mxPoint x="180.00000000000023" y="244.58" as="sourcePoint"/>
                        <mxPoint x="230" y="245" as="targetPoint"/>
                    </mxGeometry>
                </mxCell>
                <mxCell id="26" value="" style="shape=flexArrow;endArrow=classic;html=1;fontSize=17;fontColor=#000000;strokeColor=#006EAF;fillColor=#1ba1e2;entryX=0;entryY=0.5;entryDx=0;entryDy=0;" edge="1" parent="1" target="6">
                    <mxGeometry width="50" height="50" relative="1" as="geometry">
                        <mxPoint x="330" y="244.58000000000004" as="sourcePoint"/>
                        <mxPoint x="380" y="245" as="targetPoint"/>
                    </mxGeometry>
                </mxCell>
                <mxCell id="29" value="" style="shape=flexArrow;endArrow=classic;html=1;fontSize=17;fontColor=#000000;strokeColor=#006EAF;fillColor=#1ba1e2;entryX=0;entryY=0.5;entryDx=0;entryDy=0;" edge="1" parent="1">
                    <mxGeometry width="50" height="50" relative="1" as="geometry">
                        <mxPoint x="500" y="244.7900000000001" as="sourcePoint"/>
                        <mxPoint x="570" y="245.21" as="targetPoint"/>
                    </mxGeometry>
                </mxCell>
                <mxCell id="30" value="" style="shape=flexArrow;endArrow=classic;html=1;fontSize=17;fontColor=#000000;strokeColor=#006EAF;fillColor=#1ba1e2;entryX=0;entryY=0.5;entryDx=0;entryDy=0;" edge="1" parent="1" target="8">
                    <mxGeometry width="50" height="50" relative="1" as="geometry">
                        <mxPoint x="670" y="244.79000000000008" as="sourcePoint"/>
                        <mxPoint x="740" y="245.21000000000004" as="targetPoint"/>
                    </mxGeometry>
                </mxCell>
                <mxCell id="32" value="" style="shape=flexArrow;endArrow=classic;html=1;fontSize=17;fontColor=#000000;strokeColor=#006EAF;fillColor=#1ba1e2;" edge="1" parent="1">
                    <mxGeometry width="50" height="50" relative="1" as="geometry">
                        <mxPoint x="850" y="244.66999999999996" as="sourcePoint"/>
                        <mxPoint x="910" y="245" as="targetPoint"/>
                    </mxGeometry>
                </mxCell>
                <mxCell id="33" value="" style="shape=flexArrow;endArrow=classic;html=1;fontSize=17;fontColor=#000000;strokeColor=#006EAF;fillColor=#1ba1e2;entryX=-0.01;entryY=0.118;entryDx=0;entryDy=0;entryPerimeter=0;" edge="1" parent="1" target="10">
                    <mxGeometry width="50" height="50" relative="1" as="geometry">
                        <mxPoint x="1010" y="249.99999999999997" as="sourcePoint"/>
                        <mxPoint x="1070" y="250.33" as="targetPoint"/>
                    </mxGeometry>
                </mxCell>
                <mxCell id="34" value="" style="shape=flexArrow;endArrow=classic;html=1;fontSize=17;fontColor=#000000;strokeColor=#3700CC;fillColor=#6a00ff;" edge="1" parent="1">
                    <mxGeometry width="50" height="50" relative="1" as="geometry">
                        <mxPoint x="330" y="494.23" as="sourcePoint"/>
                        <mxPoint x="400" y="494" as="targetPoint"/>
                    </mxGeometry>
                </mxCell>
                <mxCell id="35" value="" style="shape=flexArrow;endArrow=classic;html=1;fontSize=17;fontColor=#000000;strokeColor=#3700CC;fillColor=#6a00ff;" edge="1" parent="1">
                    <mxGeometry width="50" height="50" relative="1" as="geometry">
                        <mxPoint x="500" y="495.02000000000004" as="sourcePoint"/>
                        <mxPoint x="570" y="494.79" as="targetPoint"/>
                    </mxGeometry>
                </mxCell>
                <mxCell id="36" value="" style="shape=flexArrow;endArrow=classic;html=1;fontSize=17;fontColor=#000000;strokeColor=#3700CC;fillColor=#6a00ff;entryX=0;entryY=0.5;entryDx=0;entryDy=0;" edge="1" parent="1" target="15">
                    <mxGeometry width="50" height="50" relative="1" as="geometry">
                        <mxPoint x="670" y="494.79999999999995" as="sourcePoint"/>
                        <mxPoint x="740" y="494.56999999999994" as="targetPoint"/>
                    </mxGeometry>
                </mxCell>
                <mxCell id="37" value="" style="shape=flexArrow;endArrow=classic;html=1;fontSize=17;fontColor=#000000;strokeColor=#3700CC;fillColor=#6a00ff;" edge="1" parent="1">
                    <mxGeometry width="50" height="50" relative="1" as="geometry">
                        <mxPoint x="850" y="494.56999999999994" as="sourcePoint"/>
                        <mxPoint x="910" y="495" as="targetPoint"/>
                    </mxGeometry>
                </mxCell>
                <mxCell id="38" value="" style="shape=flexArrow;endArrow=classic;html=1;fontSize=17;fontColor=#000000;strokeColor=#3700CC;fillColor=#6a00ff;entryX=0.002;entryY=0.533;entryDx=0;entryDy=0;entryPerimeter=0;" edge="1" parent="1" target="10">
                    <mxGeometry width="50" height="50" relative="1" as="geometry">
                        <mxPoint x="1010" y="494.47" as="sourcePoint"/>
                        <mxPoint x="1090" y="494.6700000000001" as="targetPoint"/>
                    </mxGeometry>
                </mxCell>
                <mxCell id="40" value="" style="shape=flexArrow;endArrow=classic;html=1;fontSize=17;fontColor=#000000;strokeColor=#B20000;fillColor=#e51400;" edge="1" parent="1">
                    <mxGeometry width="50" height="50" relative="1" as="geometry">
                        <mxPoint x="1200" y="475.09000000000003" as="sourcePoint"/>
                        <mxPoint x="1340" y="475" as="targetPoint"/>
                    </mxGeometry>
                </mxCell>
            </root>
        </mxGraphModel>
    </diagram>
</mxfile>